<?xml version="1.0" encoding="UTF-8"?>
<!DOCTYPE svg PUBLIC "-//W3C//DTD SVG 1.1//EN" "http://www.w3.org/Graphics/SVG/1.1/DTD/svg11.dtd">
<!-- Creator: CorelDRAW 2020 (64 Bit) -->
<svg xmlns="http://www.w3.org/2000/svg" xml:space="preserve" width="287px" height="500px" version="1.1" shape-rendering="geometricPrecision" text-rendering="geometricPrecision" image-rendering="optimizeQuality" fill-rule="evenodd" clip-rule="evenodd"
viewBox="0 0 286.16 498.26"
 xmlns:xlink="http://www.w3.org/1999/xlink">
 <defs>
   <mask id="id0">
     <linearGradient id="id1" gradientUnits="userSpaceOnUse" x1="148.02" y1="288.78" x2="148.02" y2="56.78">
      <stop offset="0" stop-opacity="1" stop-color="white"/>
      <stop offset="1" stop-opacity="0" stop-color="white"/>
     </linearGradient>
    <rect fill="url(#id1)" x="45.71" y="21.56" width="192.42" height="311.05"/>
   </mask>
 </defs>

  <path mask="url(#id0)" d="M179.03 21.61c0.56,0.56 0.56,0.28 1.05,0.98 1.05,1.27 0.64,3.66 0.4,5.2 -1.13,6.61 -5.08,10.12 -10.97,13.21 -13.88,7.17 -54.47,8.85 -63.5,-6.18 -0.97,-1.55 -1.7,-3.8 -1.94,-6.04 -0.24,-3.09 -0.4,-5.06 1.85,-6.33 -0.56,-0.42 -1.77,0.85 -2.34,1.13l-0.88 0.14c-1.05,0.42 -2.5,1.12 -3.71,1.54 -1.13,0.43 -2.43,0.99 -3.64,1.27 -2.01,0.42 -2.34,0.84 -3.79,1.54 -1.29,0.57 -3.87,0.99 -5.65,1.83 -0.72,0.28 -1.05,0.7 -1.69,0.84 -1.29,0.56 -2.58,0.71 -3.95,1.13 -1.38,0.42 -2.43,0.84 -3.88,1.26 -6.21,1.83 -9.68,2.11 -15.57,4.78 -2.34,1.12 -4.44,2.39 -6.7,3.51 -2.73,1.45 -5.48,2.48 -7.32,3.62 -0.4,0.25 -0.76,0.51 -1.06,0.77 0.1,0.48 0.23,1.01 0.38,1.58 2.07,8.08 6.83,29.82 6.83,35.2 0,5.38 4.97,20.7 5.59,23.81 0.62,3.1 3.52,9.11 2.49,11.39 -0.32,0.68 -0.46,1.67 -0.51,2.71 2.13,4.03 3.17,15.93 3.69,20.39 1.94,15.6 3.63,30.91 4.92,46.51 1.53,18.54 1.37,56.06 -0.73,74.46 -1.45,13.49 -3.95,26.98 -4.92,40.18 -0.16,2.11 -0.08,4.08 0,6.19 -0.16,0.14 0.16,0.42 -0.08,-0.14l-0.24 -0.57c-0.08,2.25 -0.81,7.87 -0.4,9.56 -0.57,3.56 -2.13,8.67 -1.86,11.94l1.37 0.42c4.28,1.13 4.92,1.13 9.52,1.55 3.39,0.28 6.94,0.42 10.33,0.7 7.34,0.42 14.44,0 21.79,0 14.52,0.14 28.88,1.12 43.41,0.84 14.2,-0.14 28.24,-0.84 42.12,-2.25 6.7,-0.7 12.83,-1.4 19.04,-3.09 3.87,-0.98 15.25,-3.65 19.37,-2.38l0.32 0.98c0.48,-1.13 0.89,-0.7 0.81,-2.53 -0.07,-1.06 0.44,-5.54 -5.33,-15.74 -0.16,-0.7 0,-0.28 -0.32,-0.56 0,0 -0.08,-0.14 -0.08,-0.28l0.24 -0.14c-0.4,-2.95 -0.32,-0.56 -0.89,-5.62 -1.37,-13.49 -3.63,-26.13 -5.16,-39.62 -1.78,-16.02 -1.94,-33.16 -1.86,-49.32 0,-26.41 1.78,-46.64 4.76,-72.21 0.67,-5.65 1.26,-14.95 3.4,-20.15 0.1,-1.75 0.08,-3.93 -0.48,-5.15 -1.03,-2.27 1.87,-8.28 2.49,-11.38 0.62,-3.11 5.59,-18.43 5.59,-23.81 0,-5.33 4.65,-26.64 6.76,-34.92 -0.17,-0.1 -0.44,-0.19 -0.89,-0.27 -0.01,-0.01 -0.02,-0.02 -0.04,-0.03 -0.57,-0.49 -5.57,-2.8 -6.66,-3.48 -5.08,-2.95 -7.75,-4.08 -13.4,-5.62 -2.5,-0.56 -5,-1.13 -7.58,-1.83 -0.97,-0.28 -2.1,-0.98 -3.31,-1.26 -1.21,-0.42 -2.66,-0.85 -3.87,-0.99 -2.02,-0.56 -1.7,-0.84 -3.15,-1.54 -1.05,-0.56 -2.58,-0.56 -3.87,-0.98l-13.72 -5.34c-0.78,-0.16 -1.86,-1.62 -2.58,-1.41z"/>

</svg>
