<?xml version="1.0" encoding="UTF-8"?>
<!DOCTYPE svg PUBLIC "-//W3C//DTD SVG 1.1//EN" "http://www.w3.org/Graphics/SVG/1.1/DTD/svg11.dtd">
<!-- Creator: CorelDRAW 2020 (64 Bit) -->
<svg xmlns="http://www.w3.org/2000/svg" xml:space="preserve" width="287px" height="500px" version="1.1" viewBox="0 0 286 498" xmlns:xlink="http://www.w3.org/1999/xlink">
   <path d="M179.18 19.17c0.57,0.57 0.57,0.29 1.05,0.99 1.06,1.27 0.65,3.67 0.41,5.22 -1.14,6.64 -5.11,10.17 -11.03,13.27 -13.94,7.2 -54.72,8.9 -63.8,-6.21 -0.97,-1.55 -1.7,-3.81 -1.94,-6.07 -0.25,-3.1 -0.41,-5.08 1.86,-6.35 -0.57,-0.42 -1.78,0.85 -2.35,1.13l-0.89 0.14c-1.05,0.42 -2.51,1.13 -3.73,1.55 -1.13,0.43 -2.43,0.99 -3.65,1.27 -2.02,0.43 -2.35,0.85 -3.81,1.56 -1.29,0.56 -3.89,0.98 -5.67,1.83 -0.73,0.28 -1.06,0.71 -1.7,0.85 -1.3,0.56 -2.6,0.7 -3.98,1.13 -1.37,0.42 -2.43,0.84 -3.89,1.27 -6.24,1.83 -9.73,2.12 -15.64,4.8 -2.35,1.13 -4.46,2.4 -6.73,3.53 -2.75,1.45 -5.51,2.48 -7.36,3.63 -0.4,0.25 -0.76,0.51 -1.07,0.78 0.11,0.48 0.24,1 0.39,1.59 2.08,8.11 6.86,29.95 6.86,35.36 0,5.41 4.99,20.8 5.62,23.92 0.62,3.12 3.53,9.15 2.49,11.44 -0.31,0.69 -0.45,1.68 -0.5,2.72 2.13,4.06 3.18,16 3.7,20.49 1.95,15.67 3.65,31.06 4.95,46.73 1.54,18.63 1.37,56.32 -0.73,74.81 -1.46,13.55 -3.98,27.1 -4.95,40.37 -0.16,2.12 -0.08,4.09 0,6.21 -0.16,0.14 0.16,0.42 -0.08,-0.14l-0.24 -0.57c-0.08,2.26 -0.81,7.91 -0.41,9.6 -0.56,3.58 -2.13,8.72 -1.86,12l1.38 0.42c4.29,1.13 4.94,1.13 9.56,1.56 3.41,0.28 6.97,0.42 10.38,0.7 7.37,0.43 14.51,0 21.89,0 14.59,0.14 29.02,1.13 43.61,0.85 14.27,-0.14 28.37,-0.85 42.32,-2.26 6.73,-0.71 12.89,-1.41 19.13,-3.11 3.89,-0.98 15.32,-3.67 19.46,-2.4l0.32 0.99c0.49,-1.13 0.89,-0.7 0.81,-2.54 -0.07,-1.06 0.45,-5.56 -5.35,-15.81 -0.16,-0.7 0,-0.28 -0.32,-0.56 0,0 -0.09,-0.14 -0.09,-0.28l0.25 -0.15c-0.41,-2.96 -0.33,-0.56 -0.89,-5.64 -1.38,-13.55 -3.65,-26.26 -5.19,-39.81 -1.79,-16.09 -1.95,-33.31 -1.87,-49.54 0,-26.54 1.79,-46.87 4.79,-72.56 0.66,-5.67 1.26,-15.01 3.41,-20.24 0.1,-1.76 0.08,-3.94 -0.48,-5.17 -1.04,-2.29 1.87,-8.32 2.5,-11.44 0.62,-3.12 5.61,-18.51 5.61,-23.92 0,-5.35 4.68,-26.76 6.79,-35.08 -0.17,-0.1 -0.44,-0.19 -0.89,-0.27 -0.01,-0.01 -0.02,-0.02 -0.04,-0.04 -0.57,-0.49 -5.6,-2.81 -6.69,-3.49 -5.11,-2.96 -7.78,-4.09 -13.46,-5.65 -2.51,-0.56 -5.02,-1.13 -7.62,-1.83 -0.97,-0.28 -2.1,-0.99 -3.32,-1.27 -1.22,-0.43 -2.68,-0.85 -3.89,-0.99 -2.03,-0.57 -1.7,-0.85 -3.16,-1.55 -1.06,-0.57 -2.6,-0.57 -3.89,-0.99l-13.79 -5.37c-0.78,-0.15 -1.86,-1.62 -2.59,-1.41z"/>
   <path  d="M110.68 22.42c0.4,1.69 0.65,2.68 1.54,3.95 2.35,3.39 6.24,5.37 10.29,6.64 9.65,2.96 30.08,2.4 39.64,-0.99 4.63,-1.7 11.03,-5.08 12.16,-10.17 -1.94,-0.14 -5.35,0.57 -7.53,0.71 -2.76,0.14 -5.35,0.14 -8.19,0.14 -9.24,0.14 -36.4,0.99 -44.43,0 -0.97,0 -2.67,-0.42 -3.48,-0.28z"/>
</svg>
