<?xml version="1.0" encoding="UTF-8"?>
<!DOCTYPE svg PUBLIC "-//W3C//DTD SVG 1.1//EN" "http://www.w3.org/Graphics/SVG/1.1/DTD/svg11.dtd">
<!-- Creator: CorelDRAW 2020 (64 Bit) -->
<svg xmlns="http://www.w3.org/2000/svg" xml:space="preserve" width="287px" height="500px" version="1.1" style="shape-rendering:geometricPrecision; text-rendering:geometricPrecision; image-rendering:optimizeQuality; fill-rule:evenodd; clip-rule:evenodd"
viewBox="0 0 286 498"
 xmlns:xlink="http://www.w3.org/1999/xlink">
 \<path d="M110.68 22.42c0.81,-0.14 2.51,0.28 3.48,0.28 8.03,0.99 35.19,0.14 44.43,0 2.84,0 5.43,0 8.19,-0.14 2.18,-0.14 5.59,-0.85 7.53,-0.71 -1.13,5.09 -7.53,8.47 -12.16,10.17 -9.56,3.39 -29.99,3.95 -39.64,0.99 -4.05,-1.27 -7.94,-3.25 -10.29,-6.64 -0.89,-1.27 -1.14,-2.26 -1.54,-3.95zm-4.95 -2.4c-2.27,1.27 -2.11,3.25 -1.86,6.35 0.24,2.26 0.97,4.52 1.94,6.07 9.08,15.11 49.86,13.41 63.8,6.21 5.92,-3.1 9.89,-6.63 11.03,-13.27 0.24,-1.55 0.65,-3.95 -0.41,-5.22 -0.48,-0.7 -0.48,-0.42 -1.05,-0.99 -1.14,-0.42 -3.08,-1.97 -3.97,-2.82 -3.65,-3.11 -5.68,-3.25 -11.6,-3.53 -8.1,-0.42 -34.53,0 -42.56,0.71 -5.1,0.56 -7.7,0 -10.86,2.82l-4.21 3.39c-0.33,0.28 -0.17,0.14 -0.25,0.28z"/>
</svg>
