<?xml version="1.0" encoding="UTF-8"?>
<!DOCTYPE svg PUBLIC "-//W3C//DTD SVG 1.1//EN" "http://www.w3.org/Graphics/SVG/1.1/DTD/svg11.dtd">
<!-- Creator: CorelDRAW 2020 (64 Bit) -->
<svg xmlns="http://www.w3.org/2000/svg" xml:space="preserve" width="287px" height="500px" version="1.1" style="shape-rendering:geometricPrecision; text-rendering:geometricPrecision; image-rendering:optimizeQuality; fill-rule:evenodd; clip-rule:evenodd"
viewBox="0 0 286 498"
 xmlns:xlink="http://www.w3.org/1999/xlink">
 <path d="M45.26 43.49c0.11,0.48 0.24,1 0.39,1.59 2.08,8.11 6.86,29.95 6.86,35.36 0,5.41 4.99,20.8 5.62,23.92 0.62,3.12 3.53,9.15 2.49,11.44 -0.31,0.69 -0.45,1.68 -0.5,2.72 -0.21,-0.4 -0.44,-0.73 -0.68,-0.96 -0.02,0.04 -0.04,0.09 -0.07,0.16 -0.47,1.34 -0.17,6.97 -0.17,8.59 -0.08,2.82 -0.08,6.07 -0.41,8.89 -1.94,-0.28 -4.05,-0.42 -6.08,-0.7l-17.34 -2.83c-5.19,-0.84 -18.65,-3.67 -22.87,-3.95 0.82,-8.33 3.57,-16.65 5.19,-24.56 1.71,-8.75 2.76,-16.23 5.6,-24.28 2.51,-7.06 5.91,-14.4 9.4,-20.33 1.87,-3.1 3.89,-6.77 6,-9.03 1.78,-1.83 1.38,-1.83 3.73,-3.67 0.81,-0.56 1.38,-0.99 2.11,-1.55 0.19,-0.29 0.44,-0.55 0.73,-0.81z"/>
</svg>
