<?xml version="1.0" encoding="UTF-8"?>
<!DOCTYPE svg PUBLIC "-//W3C//DTD SVG 1.1//EN" "http://www.w3.org/Graphics/SVG/1.1/DTD/svg11.dtd">
<!-- Creator: CorelDRAW 2020 (64 Bit) -->
<svg xmlns="http://www.w3.org/2000/svg" xml:space="preserve" width="287px" height="500px" version="1.1" style="shape-rendering:geometricPrecision; text-rendering:geometricPrecision; image-rendering:optimizeQuality; fill-rule:evenodd; clip-rule:evenodd"
viewBox="0 0 286 498"
 xmlns:xlink="http://www.w3.org/1999/xlink">
 <path d="M224.1 117.64c0.1,-1.76 0.08,-3.94 -0.48,-5.17 -1.04,-2.29 1.87,-8.32 2.5,-11.44 0.62,-3.12 5.61,-18.51 5.61,-23.92 0,-5.35 4.68,-26.76 6.79,-35.08 0.44,0.26 0.23,0.59 0.81,1 0,0.14 0.41,0.28 0.49,0.42 2.59,1.41 4.05,2.82 6.08,4.8 5.67,5.65 12.4,21.17 15.08,28.94 2.83,8.18 3.89,15.24 5.1,24.28 1.14,8.61 3.08,16.51 3.89,25.4 -7.7,0.29 -15.4,1.13 -23.1,1.7 -7.54,0.7 -15.16,1.27 -22.54,2.12l0.41 -14.4c-0.1,0.18 -0.2,0.37 -0.3,0.57 -0.12,0.25 -0.23,0.51 -0.34,0.78z"/>
</svg>
