<?xml version="1.0" encoding="UTF-8"?>
<!DOCTYPE svg PUBLIC "-//W3C//DTD SVG 1.1//EN" "http://www.w3.org/Graphics/SVG/1.1/DTD/svg11.dtd">
<!-- Creator: CorelDRAW 2020 (64 Bit) -->
<svg xmlns="http://www.w3.org/2000/svg" xml:space="preserve" width="287px" height="500px" version="1.1" style="shape-rendering:geometricPrecision; text-rendering:geometricPrecision; image-rendering:optimizeQuality; fill-rule:evenodd; clip-rule:evenodd"
viewBox="0 0 286 498"
 xmlns:xlink="http://www.w3.org/1999/xlink"
 xmlns:xodm="http://www.corel.com/coreldraw/odm/2003">
 <defs>
  <style type="text/css">
   <![CDATA[
    .fil0 {fill:none}
    .fil1 {fill:black}
   ]]>
  </style>
 </defs>
 <g id="Camada_x0020_1">
  <metadata id="CorelCorpID_0Corel-Layer"/>
  <rect class="fil0" width="286" height="497.99"/>
  <g id="_1486738762464">
   <path d="M224.33 130.69c-0.81,0.56 -0.24,0.56 -0.24,1.55l0.57 13.69c2.02,0.28 9.16,-0.56 11.59,-0.71 7.54,-0.56 15.57,-0.84 23.11,-1.69l10.94 -1.55c0.32,-4.24 -0.16,-14.12 0,-13.98 0.16,-0.84 0.24,-0.7 -0.33,-1.13 -7.7,0.29 -15.4,1.13 -23.1,1.7 -7.54,0.7 -15.16,1.27 -22.54,2.12z"/>
   <path d="M58.79 135.2c-1.94,-0.28 -4.05,-0.42 -6.08,-0.7l-17.34 -2.83c-5.19,-0.84 -18.65,-3.67 -22.87,-3.95l-0.48 0.14c0,0.14 0.24,1.27 0.16,1.27 -0.24,1.27 -0.65,12.99 -0.4,13.55 0.97,0.57 4.13,0.71 5.59,0.99 1.86,0.28 3.57,0.85 5.43,1.13l22.54 3.81c2.27,0.43 9.81,1.7 11.67,1.41 0.16,-1.41 1.95,-13.83 1.95,-13.83 0.16,-0.71 0.32,-0.56 -0.17,-0.99z"/>
  </g>
 </g>
</svg>
