<?xml version="1.0" encoding="UTF-8"?>
<!DOCTYPE svg PUBLIC "-//W3C//DTD SVG 1.1//EN" "http://www.w3.org/Graphics/SVG/1.1/DTD/svg11.dtd">
<!-- Creator: CorelDRAW 2020 (64 Bit) -->
<svg xmlns="http://www.w3.org/2000/svg" xml:space="preserve" width="287px" height="500px" version="1.1" style="shape-rendering:geometricPrecision; text-rendering:geometricPrecision; image-rendering:optimizeQuality; fill-rule:evenodd; clip-rule:evenodd"
viewBox="0 0 286 498"
 xmlns:xlink="http://www.w3.org/1999/xlink">
 <path d="M61.88 328.44c-0.09,0.43 -0.09,1.84 -0.17,1.98l-0.65 3.67c-0.16,1.83 0.25,0.85 -0.16,1.13 -0.16,1.98 -0.81,3.81 -0.65,5.64 -0.16,0.15 0.25,0.15 -0.08,0 -0.4,-0.42 0.33,-0.28 -0.16,-0.14l0.08 1.27c-0.48,0 0.24,-0.28 -0.24,0l0.08 0.85c-0.49,0.14 0.49,0 -0.08,0 -0.41,0 0.32,-0.28 -0.16,0 -0.08,1.69 -0.33,1.98 -0.65,4.09 -0.16,0.71 -0.25,1.42 -0.41,2.26 -0.08,0.43 -0.16,0.85 -0.16,1.27 0,0.57 0.08,0.43 0.08,1.13l-0.24 -0.7c-0.08,1.27 0.16,0.99 -0.08,1.55 -0.25,0.56 -0.25,1.13 -0.33,1.69 -1.86,12.57 -3.16,31.76 -2.92,44.04 0,1.42 0.09,2.83 0.09,4.24l0.32 3.67c0,1.13 -0.08,2.68 0.08,4.09 0.08,1.27 0.16,2.68 0.24,3.95 0.33,5.37 0.98,10.31 1.06,15.67 0.08,5.65 0.16,11.29 0.24,17.08 0.57,27.95 0.73,30.07 0.73,30.77 0.08,3.25 -0.24,3.39 2.92,4.24 3.81,0.85 8.51,1.27 12.56,1.69 7.06,0.43 20.03,1.13 27.16,1.27 9,0.14 30.56,-0.28 38.91,-3.81 2.19,-0.85 2.84,-1.55 2.92,-4.23 0.08,-2.12 0.33,-4.38 0.33,-6.5 0,0 0.24,-3.95 0.32,-4.51 0.81,-18.78 2.76,-40.09 5.92,-58.3 0.57,-3.25 1.13,-6.49 1.78,-9.74 0.34,-1.51 0.73,-3.22 1.17,-4.89l0 0 0 -0.01c0.3,-1.14 0.61,-2.26 0.94,-3.29l0.24 -0.84 0.06 0 0.02 0c0,-0.14 0.09,-0.14 0.09,-0.14 0.09,0.14 0.2,0.33 0.31,0.55 0.63,-1.96 0.92,-4.2 -0.41,-5.42 -2.29,-2.12 -6.96,-40.36 -8.34,-52.12 -13.68,0.12 -27.24,-0.76 -40.93,-0.89 -7.38,0 -14.52,0.43 -21.89,0 -3.41,-0.28 -6.97,-0.42 -10.38,-0.7 -4.62,-0.43 -5.27,-0.43 -9.56,-1.56z"/>
</svg>
