<?xml version="1.0" encoding="UTF-8"?>
<!DOCTYPE svg PUBLIC "-//W3C//DTD SVG 1.1//EN" "http://www.w3.org/Graphics/SVG/1.1/DTD/svg11.dtd">
<!-- Creator: CorelDRAW 2020 (64 Bit) -->
<svg xmlns="http://www.w3.org/2000/svg" xml:space="preserve" width="287px" height="500px" version="1.1" style="shape-rendering:geometricPrecision; text-rendering:geometricPrecision; image-rendering:optimizeQuality; fill-rule:evenodd; clip-rule:evenodd"
viewBox="0 0 286 498"
 xmlns:xlink="http://www.w3.org/1999/xlink">
 <path d="M153.39 389.13c0.63,-1.96 0.92,-4.2 -0.41,-5.42 -2.29,-2.12 -6.96,-40.36 -8.34,-52.12l0.14 0c0.84,-0.01 1.69,-0.02 2.54,-0.04 14.27,-0.14 28.37,-0.85 42.32,-2.26 6.73,-0.71 12.89,-1.41 19.13,-3.11 3.89,-0.98 15.32,-3.67 19.46,-2.4l0.32 0.99c0.24,0.14 0.16,0.14 0.24,0.57 1.3,3.53 3.57,8.89 5.03,12.56 5.59,14.12 9.73,27.81 12.32,43.34 2.35,14.25 3.49,36.27 3.81,51.8 0.16,6.07 0.16,12.14 0.49,18.35 0,1.13 0,1.55 0,2.4 -0.08,1.27 -0.08,2.4 -0.08,3.67 0,1.98 0.48,5.36 -1.38,5.93 -0.81,0.14 -0.49,-0.14 -1.38,0.28 -2.51,1.41 -3,0.99 -4.95,2.26 -3.32,1.97 -26.91,1.97 -31.85,2.4 -8.11,0.7 -24.65,3.24 -31.7,-1.41 -0.81,-0.43 -1.3,-0.99 -2.03,-1.56 -3.24,-2.54 -1.94,0.57 -3.24,-7.76 -0.33,-2.26 -0.57,-3.39 -0.65,-3.95 -0.24,-1.7 -0.32,-1.7 -0.32,-1.84 -0.73,-2.68 -0.98,-6.49 -1.71,-9.31 -0.73,-2.54 -1.21,-2.26 -2.35,-3.96 -3.73,-5.36 -0.81,-5.64 -1.94,-9.74 -0.89,-3.1 -0.89,-2.11 -2.43,-3.81 -0.82,-0.98 -2.03,-2.4 -2.44,-3.95 -0.16,-0.85 -0.32,-1.83 -0.16,-2.68 0.08,-0.57 0.24,-0.71 0.32,-1.27 0.17,-0.85 0.09,-0.57 -0.16,-0.71 -0.32,-0.84 -0.08,-3.67 -0.97,-4.51 -3.89,-3.82 -1.46,-4.1 -1.78,-6.78 -0.25,-0.99 0.16,0.57 -0.33,-0.71l-0.97 -3.52c-0.32,-1.27 0.16,-0.85 -0.89,-1.7 -0.49,-0.42 -0.97,-0.99 -0.89,-2.12 0.16,-1.55 -0.17,-1.83 -1.14,-4.23 -0.4,-0.93 -1.08,-2.64 -1.63,-3.68z"/>
</svg>
