<?xml version="1.0" encoding="UTF-8"?>
<!DOCTYPE svg PUBLIC "-//W3C//DTD SVG 1.1//EN" "http://www.w3.org/Graphics/SVG/1.1/DTD/svg11.dtd">
<svg xmlns="http://www.w3.org/2000/svg" xml:space="preserve" width="287px" height="500px" version="1.1" shape-rendering="geometricPrecision" text-rendering="geometricPrecision" image-rendering="optimizeQuality" fill-rule="evenodd" clip-rule="evenodd"
viewBox="0 0 286 498"
 xmlns:xlink="http://www.w3.org/1999/xlink">
  <path d="M223.12 323.54c2.08,-0.16 3.9,-0.12 5.11,0.24l0.32 0.99c0.24,0.14 0.16,0.14 0.24,0.57 1.3,3.53 3.57,8.89 5.03,12.56 5.59,14.12 9.73,27.81 12.32,43.34 2.35,14.25 3.49,36.27 3.81,51.8 0.16,6.07 0.16,12.14 0.49,18.35 0,1.13 0,1.55 0,2.4 -0.08,1.27 -0.08,2.4 -0.08,3.67 0,1.98 0.48,5.36 -1.38,5.93 -0.81,0.14 -0.49,-0.14 -1.38,0.28 -2.42,1.36 -2.96,1.02 -4.73,2.12 3.13,-50.77 -2.51,-91.12 -19.75,-142.25z"/>
</svg>
