<?xml version="1.0" encoding="UTF-8"?>
<!DOCTYPE svg PUBLIC "-//W3C//DTD SVG 1.1//EN" "http://www.w3.org/Graphics/SVG/1.1/DTD/svg11.dtd">
<svg xmlns="http://www.w3.org/2000/svg" xml:space="preserve" width="287px" height="500px" version="1.1" shape-rendering="geometricPrecision" text-rendering="geometricPrecision" image-rendering="optimizeQuality" fill-rule="evenodd" clip-rule="evenodd"
viewBox="0 0 286 498">
 xmlns:xlink="http://www.w3.org/1999/xlink">
  <path d="M67.62 329.63c-6.02,56.3 -6.18,102.14 -2.82,152.98 -1.45,-0.2 -2.84,-0.44 -4.14,-0.73 -3.16,-0.85 -2.84,-0.99 -2.92,-4.24 0,-0.7 -0.16,-2.82 -0.73,-30.77 -0.08,-5.79 -0.16,-11.43 -0.24,-17.08 -0.08,-5.36 -0.73,-10.3 -1.06,-15.67 -0.08,-1.27 -0.16,-2.68 -0.24,-3.95 -0.16,-1.41 -0.08,-2.96 -0.08,-4.09l-0.32 -3.67c0,-1.41 -0.09,-2.82 -0.09,-4.24 -0.24,-12.28 1.06,-31.47 2.92,-44.04 0.08,-0.56 0.08,-1.13 0.33,-1.69 0.24,-0.56 0,-0.28 0.08,-1.55l0.24 0.7c0,-0.7 -0.08,-0.56 -0.08,-1.13 0,-0.42 0.08,-0.84 0.16,-1.27 0.16,-0.84 0.25,-1.55 0.41,-2.26 0.32,-2.11 0.57,-2.4 0.65,-4.09 0.48,-0.28 -0.25,0 0.16,0 0.57,0 -0.41,0.14 0.08,0l-0.08 -0.85c0.48,-0.28 -0.24,0 0.24,0l-0.08 -1.27c0.49,-0.14 -0.24,-0.28 0.16,0.14 0.33,0.15 -0.08,0.15 0.08,0 -0.16,-1.83 0.49,-3.66 0.65,-5.64 0.41,-0.28 0,0.7 0.16,-1.13l0.65 -3.67c0.08,-0.14 0.08,-1.55 0.17,-1.98 2.74,0.72 3.99,0.98 5.74,1.19z"/>
</svg>
