<?xml version="1.0" encoding="UTF-8"?>
<!DOCTYPE svg PUBLIC "-//W3C//DTD SVG 1.1//EN" "http://www.w3.org/Graphics/SVG/1.1/DTD/svg11.dtd">
<!-- Creator: CorelDRAW 2020 (64 Bit) -->
<svg xmlns="http://www.w3.org/2000/svg" xml:space="preserve" width="287px" height="500px" version="1.1" shape-rendering="geometricPrecision" text-rendering="geometricPrecision" image-rendering="optimizeQuality" fill-rule="evenodd" clip-rule="evenodd"
viewBox="0 0 286.16 498.26"
 xmlns:xlink="http://www.w3.org/1999/xlink">
 <defs>
   <mask id="id0">
     <linearGradient id="id1" gradientUnits="userSpaceOnUse" x1="162.42" y1="479.31" x2="162.42" y2="332.95">
      <stop offset="0" stop-opacity="1" stop-color="white"/>
      <stop offset="1" stop-opacity="0" stop-color="white"/>
     </linearGradient>
    <rect fill="url(#id1)" x="55.35" y="323.44" width="194.64" height="160.73"/>
   </mask>
 </defs>
  <polygon points="151.71,391.57 151.71,391.56 151.7,391.56 "/>
  <path mask="url(#id0)" d="M62.27 328.44c-0.08,0.43 -0.08,1.83 -0.16,1.97l-0.65 3.65c-0.16,1.83 0.25,0.85 -0.16,1.13 -0.16,1.97 -0.8,3.79 -0.64,5.62 -0.16,0.14 0.24,0.14 -0.08,0 -0.41,-0.42 0.32,-0.28 -0.16,-0.14l0.08 1.26c-0.49,0 0.24,-0.28 -0.25,0l0.09 0.85c-0.49,0.14 0.48,0 -0.09,0 -0.4,0 0.33,-0.29 -0.16,0 -0.08,1.68 -0.32,1.96 -0.64,4.07 -0.16,0.7 -0.24,1.4 -0.41,2.25 -0.08,0.42 -0.16,0.84 -0.16,1.26 0,0.56 0.08,0.42 0.08,1.13l-0.24 -0.71c-0.08,1.27 0.16,0.99 -0.08,1.55 -0.24,0.56 -0.24,1.12 -0.32,1.68 -1.86,12.51 -3.15,31.62 -2.91,43.84 0,1.41 0.08,2.81 0.08,4.21l0.33 3.66c0,1.12 -0.08,2.67 0.08,4.07 0.08,1.27 0.16,2.67 0.24,3.94 0.32,5.34 0.97,10.25 1.05,15.59 0.08,5.62 0.16,11.24 0.24,17 0.57,27.82 0.73,29.93 0.73,30.63 0.08,3.23 -0.25,3.37 2.9,4.22 3.79,0.84 8.47,1.26 12.51,1.68 7.02,0.42 19.93,1.13 27.03,1.27 8.96,0.14 30.42,-0.29 38.73,-3.8 2.18,-0.84 2.82,-1.54 2.9,-4.21 0.09,-2.11 0.33,-4.36 0.33,-6.47 0,0 0.24,-3.93 0.32,-4.49 0.81,-18.69 2.74,-39.9 5.89,-58.03 0.57,-3.23 1.13,-6.46 1.78,-9.69 0.33,-1.5 0.72,-3.2 1.16,-4.87l-0.01 0 0.01 -0.01c0.29,-1.13 0.61,-2.25 0.93,-3.27l0.25 -0.84 0.05 0 0.03 0c0,-0.14 0.08,-0.14 0.08,-0.14 0.09,0.14 0.2,0.33 0.31,0.55 0.55,1.03 1.22,2.73 1.62,3.66 0.97,2.39 1.3,2.67 1.13,4.22 -0.08,1.12 0.41,1.68 0.89,2.1 1.05,0.85 0.57,0.43 0.89,1.69l0.97 3.51c0.48,1.27 0.08,-0.28 0.32,0.7 0.32,2.67 -2.1,2.96 1.77,6.75 0.89,0.84 0.65,3.65 0.97,4.49 0.24,0.14 0.33,-0.14 0.16,0.71 -0.08,0.56 -0.24,0.7 -0.32,1.26 -0.16,0.84 0,1.83 0.16,2.67 0.41,1.55 1.62,2.95 2.42,3.94 1.54,1.68 1.54,0.7 2.42,3.79 1.13,4.07 -1.77,4.35 1.94,9.69 1.13,1.69 1.61,1.41 2.34,3.94 0.73,2.81 0.97,6.6 1.7,9.27 0,0.14 0.08,0.14 0.32,1.83 0.08,0.56 0.32,1.68 0.64,3.93 1.3,8.29 0,5.2 3.23,7.73 0.73,0.56 1.21,1.12 2.02,1.54 7.02,4.64 23.48,2.11 31.55,1.41 4.92,-0.42 28.4,-0.42 31.71,-2.39 1.94,-1.27 2.42,-0.84 4.92,-2.25 0.89,-0.42 0.57,-0.14 1.37,-0.28 1.86,-0.56 1.38,-3.93 1.38,-5.9 0,-1.27 0,-2.39 0.08,-3.65 0,-0.85 0,-1.27 0,-2.39 -0.33,-6.18 -0.33,-12.23 -0.49,-18.27 -0.32,-15.45 -1.45,-37.37 -3.79,-51.56 -2.58,-15.45 -6.7,-29.08 -12.27,-43.13 -1.45,-3.66 -3.71,-8.99 -5,-12.51 -0.08,-0.42 0,-0.42 -0.24,-0.56l-0.32 -0.98c-4.12,-1.27 -15.5,1.4 -19.37,2.39 -6.21,1.68 -12.34,2.38 -19.04,3.09 -13.88,1.4 -27.92,2.11 -42.12,2.25 -0.85,0.01 -1.69,0.02 -2.53,0.03l-0.14 0c-13.62,0.13 -27.11,-0.75 -40.74,-0.88 -7.35,0 -14.45,0.42 -21.79,0 -3.39,-0.28 -6.94,-0.42 -10.33,-0.7 -4.6,-0.42 -5.24,-0.42 -9.52,-1.55z"/>

</svg>
