<?xml version="1.0" encoding="UTF-8"?>
<!DOCTYPE svg PUBLIC "-//W3C//DTD SVG 1.1//EN" "http://www.w3.org/Graphics/SVG/1.1/DTD/svg11.dtd">
<!-- Creator: CorelDRAW -->
<svg xmlns="http://www.w3.org/2000/svg" xml:space="preserve" width="194px" height="312px" version="1.1" shape-rendering="geometricPrecision" text-rendering="geometricPrecision" image-rendering="optimizeQuality" fill-rule="evenodd" clip-rule="evenodd"
viewBox="0 0 190.31 306.76"
 xmlns:xlink="http://www.w3.org/1999/xlink"
 xmlns:xodm="http://www.corel.com/coreldraw/odm/2003">
 <defs>
   <clipPath id="id0">
    <path d="M132.04 0.02c0.56,0.55 0.56,0.28 1.04,0.97 1.03,1.25 0.64,3.6 0.4,5.13 -1.12,6.51 -5.02,9.98 -10.83,13.03 -13.69,7.06 -53.72,8.73 -62.63,-6.1 -0.96,-1.53 -1.68,-3.74 -1.91,-5.96 -0.24,-3.05 -0.4,-4.99 1.83,-6.24 -0.18,-0.13 -23.06,8.6 -25.31,9.29 -5.8,1.78 -10.48,3.44 -16.05,5.96 -5.27,2.53 -10.51,4.79 -14.69,7.38l-3.89 2.32c3.08,3.09 7.68,25.56 8.65,33.05l0 0.01 0.05 0.37 0 0.01 0.04 0.35 0 0 0.03 0.32 0 0 0.03 0.29 0 0 0.02 0.26 0 0 0.01 0.22 0 0 0.01 0.19 0 0.29 0.02 0.32 0 0.04 0.02 0.26 0.01 0.04 0.01 0.17 0.01 0.05 0.03 0.27 0 0 0.03 0.26 0.06 0.41 0.01 0.04 0.06 0.37 0 0.03 0.08 0.45 0.08 0.47 0.1 0.5 0.1 0.51 0.11 0.52 0.11 0.55 0.01 0.01 0.1 0.49 0.02 0.06 0.13 0.57 0.13 0.58 0.14 0.6 0.14 0.61 0.04 0.15 0.11 0.47 0.16 0.63 0.16 0.64 0.16 0.65 0.16 0.65 0.08 0.3 0.09 0.36 0.17 0.67 0.17 0.67 0.01 0.04 0.15 0.58 0.01 0.05 0.17 0.67 0.18 0.68 0.09 0.36 0.08 0.32 0.18 0.67 0.17 0.68 0.17 0.67 0 0 0.15 0.59 0.02 0.08 0.17 0.67 0.17 0.66 0.16 0.65 0.06 0.23 0.14 0.56 0.12 0.5 0.02 0.05 0.03 0.15 0.26 1.05 0.15 0.61 0 0.03 0.01 0.03 0.01 0.03 0 0.03 0.01 0.03 0.01 0.02 0 0.03 0.01 0.03 0.01 0.03 0.01 0.03 0 0.02 0.01 0.03 0 0.03 0.01 0.03 0.01 0.03 0 0.03 0.01 0.02 0.01 0.03 0 0.03 0.01 0.03 0.01 0.02 0 0.01 0 0.02 0.01 0.03 0.01 0.03 0 0.03 0.01 0.02 0.01 0.03 0 0.03 0.01 0.03 0.01 0.02 0 0.03 0.01 0.03 0 0.03 0.01 0.02 0.01 0.03 0 0.03 0.01 0.03 0.01 0.02 0 0.03 0.01 0.03 0 0.03 0.01 0.02 0.01 0.02 0 0.04 0.01 0.02 0.01 0.03 0 0.03 0.01 0.03 0 0.02 0.01 0.03 0.01 0.03 0 0.02 0.01 0.03 0 0.03 0.01 0.02 0.01 0.03 0 0.03 0.01 0.02 0.01 0.03 0 0.03 0.01 0.02 0 0.03 0.01 0.03 0.01 0.02 0.12 0.57 0 0.01 0.11 0.48 0.01 0.05 0.11 0.53 0.1 0.51 0.1 0.5 0.03 0.18 0.06 0.29 0.02 0.11 0.06 0.35 0 0.05 0.06 0.37 0.01 0.01 0.06 0.42 0.04 0.28 0.03 0.3 0.01 0.03 0 0.01c0.05,0.28 0.07,0.52 0.06,0.75l0 0.01 0 0.03 0 0.01 0 0.02 0.01 0.02 0 0.03 0 0.09 0 0.03 0 0.05 0 0.03 0 0.02 0 0.01 0 0.02 0 0.03 0 0.02 0 0.03 0 0.08 0 0.02 0 0.03 0 0.02 0 0.01 0 0.01 0 0.03 0 0.02 0 0.02 -0.01 0.14 0 0.01 0 0.01 -0.03 0.16 0 0.02 0 0.02 0 0 0 0.02 -0.03 0.14 -0.01 0.01 0 0.01 0 0.01 -0.05 0.14 -0.02 0.04 -0.02 0.05 -0.02 0.04 -0.03 0.05 0 0 -0.02 0.04 0 0 -0.01 0.04 -0.01 0.01 -0.02 0.04 -0.02 0.05 -0.02 0.05 -0.01 0 -0.02 0.04 0 0 -0.02 0.04 0 0.01 -0.02 0.05 -0.03 0.05 -0.02 0.05 0 0 -0.02 0.04 0 0 -0.03 0.05 -0.02 0.05 -0.03 0.05 -0.02 0.05 0 0 -0.02 0.04 0 0.01 -0.02 0.04 -0.01 0.01 -0.02 0.05 -0.03 0.05 -0.02 0.05 0 0 -0.02 0.04 -0.01 0.01 -0.02 0.05 -0.02 0.05 -0.03 0.05 -0.02 0.05 -0.02 0.05 -0.03 0.05 -0.02 0.06 -0.02 0.05 0 0 -0.02 0.04 0 0.01 -0.02 0.04 -0.01 0.01 -0.04 0.1 0 0.01 -0.02 0.04 0 0 -0.02 0.05 0 0 -0.02 0.05 -0.01 0.03 -0.01 0.02 -0.02 0.05 -0.02 0.05 0 0 -0.02 0.05 0 0 -0.01 0.04 -0.01 0.01 -0.01 0.05 -0.02 0.05 0 0.01 -0.02 0.04 0 0 -0.01 0.04 0 0 -0.02 0.05 -0.01 0.05 -0.02 0.05 -0.01 0.05 0 0 -0.01 0.15c0.08,0.15 0.45,0.33 0.7,0.79 0.14,0.25 0.32,0.72 0.36,0.82 1.85,4.54 2.8,15.19 3.28,19.34 1.91,15.38 3.58,30.49 4.85,45.87 1.52,18.29 1.36,55.29 -0.71,73.45 -1.44,13.3 -3.9,26.61 -4.86,39.63 -0.16,2.08 -0.08,4.02 0,6.1 -0.16,0.14 0.16,0.42 -0.08,-0.14l-0.24 -0.55c-0.08,2.22 -0.79,7.76 -0.39,9.42 -0.56,3.52 -2.1,8.56 -1.83,11.78l1.35 0.42c4.22,1.11 4.85,1.11 9.39,1.52 3.34,0.28 6.84,0.42 10.19,0.7 7.24,0.41 14.24,0 21.49,0 14.32,0.13 28.49,1.1 42.82,0.83 14,-0.14 27.85,-0.83 41.54,-2.22 6.61,-0.69 12.66,-1.39 18.79,-3.05 3.82,-0.97 15.04,-3.6 19.1,-2.36l0.32 0.97c0.47,-1.1 0.87,-0.69 0.79,-2.49 -0.06,-1.05 0.44,-5.47 -5.25,-15.52 -0.16,-0.69 0,-0.28 -0.32,-0.56 0,0 -0.08,-0.13 -0.08,-0.27l0.24 -0.14c-0.4,-2.91 -0.32,-0.56 -0.88,-5.54 -1.35,-13.31 -3.58,-25.78 -5.09,-39.09 -1.75,-15.79 -1.91,-32.7 -1.83,-48.64 0,-26.05 1.52,-45.47 4.47,-70.69 0.62,-5.29 1.14,-14.33 2.98,-19.57 0.12,-0.34 0.63,-1.16 1,-1.83 -0.12,-1.74 -0.33,-3.34 -0.68,-4.63 -0.02,-0.07 -0.03,-0.16 -0.04,-0.28l0 -0.01 0 -0.01 0 -0.02 0 -0.12 0 -0.06 0 -0.02 0.01 -0.18 0 -0.02 0.01 -0.08 0.02 -0.18 0 -0.03 0.03 -0.22 0.01 -0.04 0.01 -0.08 0.01 -0.13 0.02 -0.11 0 -0.01 0.02 -0.14 0.03 -0.13 0.02 -0.14 0.03 -0.15 0.03 -0.15 0 0 0.02 -0.15 0.04 -0.15 0.01 -0.1 0.02 -0.06 0.03 -0.17 0.03 -0.16 0.01 -0.03 0.03 -0.15 0.04 -0.17 0.02 -0.13 0.02 -0.05 0.04 -0.18 0.04 -0.18 0.01 -0.05 0.03 -0.14 0.04 -0.19 0.04 -0.16 0.01 -0.04 0.05 -0.2 0.04 -0.2 0.02 -0.08 0.03 -0.12 0.05 -0.21 0.05 -0.19 0 -0.02 0.05 -0.21 0.06 -0.21 0.02 -0.11 0.03 -0.11 0.05 -0.22 0.06 -0.22 0 -0.02 0.06 -0.21 0.05 -0.23 0.04 -0.14 0.02 -0.09 0.06 -0.23 0.06 -0.23 0.01 -0.05 0.05 -0.19 0.06 -0.24 0.05 -0.18 0.02 -0.06 0.06 -0.25 0.06 -0.24 0.02 -0.08 0.05 -0.17 0.06 -0.25 0.06 -0.21 0.01 -0.04 0.07 -0.25 0.06 -0.26 0.03 -0.11 0.04 -0.14 0.07 -0.26 0.07 -0.25 0 -0.01 0.01 -0.03c0.16,-0.71 0.45,-1.78 0.82,-3.08l0.02 -0.06 0.02 -0.07 0.04 -0.18 0.06 -0.19 0.1 -0.38 0.03 -0.13 0.07 -0.24 0.1 -0.38 0.02 -0.08 0.08 -0.3 0.1 -0.38 0.01 -0.03 0.1 -0.35 0.09 -0.36 0.01 -0.02 0.1 -0.38 0.08 -0.31 0.02 -0.06 0.1 -0.38 0.07 -0.26 0.03 -0.12 0.1 -0.38 0.06 -0.21 0.04 -0.17 0.1 -0.37 0.05 -0.16 0.05 -0.22 0.1 -0.37 0.03 -0.11 0.07 -0.27 0.1 -0.37 0.01 -0.06 0.09 -0.31 0.09 -0.37 0 -0.01 0.1 -0.36 0.08 -0.32 0.01 -0.04 0.09 -0.36 0.07 -0.28 0.02 -0.08 0.1 -0.36 0.05 -0.22 0.04 -0.13 0.08 -0.36 0.05 -0.17 0.04 -0.17 0.09 -0.35 0.03 -0.13 0.05 -0.21 0.08 -0.34 0.02 -0.08 0.06 -0.26 0.08 -0.33 0.01 -0.03 0.07 -0.29 0.08 -0.32 0 -0.01 0.07 -0.32 0.06 -0.26 0.01 -0.05 0.07 -0.31 0.05 -0.22 0.02 -0.09 0.07 -0.3 0.04 -0.17 0.02 -0.12 0.06 -0.29 0.03 -0.13 0.03 -0.16 0.06 -0.28 0.02 -0.09 0.04 -0.18 0.05 -0.27 0.01 -0.05 0.06 -0.35 0.03 -0.12 0 -0.01 0.04 -0.24 0.04 -0.22 0 -0.02 0.04 -0.24 0.03 -0.18 0.01 -0.05 0.03 -0.22 0.02 -0.15 0.01 -0.07 0.05 -0.32 0.01 -0.09 0.02 -0.2 0.01 -0.07 0.01 -0.11 0.01 -0.18 0.01 -0.05 0 -0.01 0.01 -0.28 0 -0.02 0.01 -0.13 0 -0.15c0,-5.25 4.59,-26.27 6.67,-34.44 -0.17,-0.1 -0.43,-0.19 -0.88,-0.27 -0.01,-0.01 -0.02,-0.02 -0.03,-0.03 -0.57,-0.48 -5.5,-2.76 -6.58,-3.43 -5.01,-2.91 -7.64,-4.02 -13.21,-5.54 -2.47,-0.56 -4.93,-1.11 -7.48,-1.81 -0.95,-0.27 -2.07,-0.96 -3.26,-1.24 -1.2,-0.42 -2.63,-0.83 -3.82,-0.97 -1.99,-0.56 -1.67,-0.83 -3.11,-1.53 -1.03,-0.55 -2.54,-0.55 -3.82,-0.97l-13.53 -5.26c-0.77,-0.15 -1.83,-1.6 -2.55,-1.39zm-67.25 3.19c0.4,1.66 0.64,2.63 1.51,3.88 2.31,3.33 6.13,5.27 10.11,6.51 9.47,2.91 29.53,2.36 38.92,-0.97 4.54,-1.66 10.83,-4.99 11.94,-9.98 -1.91,-0.13 -5.25,0.56 -7.4,0.7 -2.71,0.14 -5.25,0.14 -8.04,0.14l-0.44 0 -0.46 0.01 0 0 -0.48 0.01 -0.01 0 -0.5 0.01 -0.01 0 -0.51 0.01 -0.02 0 -0.53 0.01 -0.03 0 -0.54 0.01 -0.03 0 -0.55 0.02 -0.05 0 -0.56 0.01c-6.51,0.14 -15.93,0.37 -24.03,0.37l-0.05 0 -0.73 0 -0.03 0c-5.98,0 -11.23,-0.12 -14.06,-0.46 -0.8,0 -2.11,-0.3 -2.98,-0.31l-0.01 0 -0.05 0 0 0 -0.04 0 -0.01 0 -0.04 0 -0.02 0 -0.02 0 -0.03 0 -0.05 0.01 -0.01 0 -0.03 0 -0.01 0 -0.04 0.01 0 0 -0.04 0 -0.04 0.01z"/>
   </clipPath>
     <mask id="id1">
       <linearGradient id="id2" gradientUnits="userSpaceOnUse" x1="192.68" y1="11.29" x2="-2.37" y2="11.29">
        <stop offset="0" stop-opacity="1" stop-color="white"/>
        <stop offset="1" stop-opacity="0" stop-color="white"/>
       </linearGradient>
      <rect fill="url(#id2)" x="-3.53" y="-5.63" width="197.37" height="285.95"/>
     </mask>
 </defs>
 <g id="Camada_x0020_1">
  <metadata id="CorelCorpID_0Corel-Layer"/>
  <g>
  </g>
  <g clip-path="url(#id0)">
   <g id="_2001601145024">
    <path fill="black" mask="url(#id1)" d="M192.68 279.16l0 -30.96 -195.05 0 0 30.96 195.05 0zm0 -252.11l0 -31.52 -195.05 0 0 31.52 195.05 0zm0 63.03l0 -30.97 -195.05 0 0 30.97 195.05 0zm0 63.02l0 -30.96 -195.05 0 0 30.96 195.05 0zm0 63.04l0 -30.97 -195.05 0 0 30.97 195.05 0z"/>
   </g>
  </g>
  <path fill="none" d="M132.04 0.02c0.56,0.55 0.56,0.28 1.04,0.97 1.03,1.25 0.64,3.6 0.4,5.13 -1.12,6.51 -5.02,9.98 -10.83,13.03 -13.69,7.06 -53.72,8.73 -62.63,-6.1 -0.96,-1.53 -1.68,-3.74 -1.91,-5.96 -0.24,-3.05 -0.4,-4.99 1.83,-6.24 -0.18,-0.13 -23.06,8.6 -25.31,9.29 -5.8,1.78 -10.48,3.44 -16.05,5.96 -5.27,2.53 -10.51,4.79 -14.69,7.38l-3.89 2.32c3.08,3.09 7.68,25.56 8.65,33.05l0 0.01 0.05 0.37 0 0.01 0.04 0.35 0 0 0.03 0.32 0 0 0.03 0.29 0 0 0.02 0.26 0 0 0.01 0.22 0 0 0.01 0.19 0 0.29 0.02 0.32 0 0.04 0.02 0.26 0.01 0.04 0.01 0.17 0.01 0.05 0.03 0.27 0 0 0.03 0.26 0.06 0.41 0.01 0.04 0.06 0.37 0 0.03 0.08 0.45 0.08 0.47 0.1 0.5 0.1 0.51 0.11 0.52 0.11 0.55 0.01 0.01 0.1 0.49 0.02 0.06 0.13 0.57 0.13 0.58 0.14 0.6 0.14 0.61 0.04 0.15 0.11 0.47 0.16 0.63 0.16 0.64 0.16 0.65 0.16 0.65 0.08 0.3 0.09 0.36 0.17 0.67 0.17 0.67 0.01 0.04 0.15 0.58 0.01 0.05 0.17 0.67 0.18 0.68 0.09 0.36 0.08 0.32 0.18 0.67 0.17 0.68 0.17 0.67 0 0 0.15 0.59 0.02 0.08 0.17 0.67 0.17 0.66 0.16 0.65 0.06 0.23 0.14 0.56 0.12 0.5 0.02 0.05 0.03 0.15 0.26 1.05 0.15 0.61 0 0.03 0.01 0.03 0.01 0.03 0 0.03 0.01 0.03 0.01 0.02 0 0.03 0.01 0.03 0.01 0.03 0.01 0.03 0 0.02 0.01 0.03 0 0.03 0.01 0.03 0.01 0.03 0 0.03 0.01 0.02 0.01 0.03 0 0.03 0.01 0.03 0.01 0.02 0 0.01 0 0.02 0.01 0.03 0.01 0.03 0 0.03 0.01 0.02 0.01 0.03 0 0.03 0.01 0.03 0.01 0.02 0 0.03 0.01 0.03 0 0.03 0.01 0.02 0.01 0.03 0 0.03 0.01 0.03 0.01 0.02 0 0.03 0.01 0.03 0 0.03 0.01 0.02 0.01 0.02 0 0.04 0.01 0.02 0.01 0.03 0 0.03 0.01 0.03 0 0.02 0.01 0.03 0.01 0.03 0 0.02 0.01 0.03 0 0.03 0.01 0.02 0.01 0.03 0 0.03 0.01 0.02 0.01 0.03 0 0.03 0.01 0.02 0 0.03 0.01 0.03 0.01 0.02 0.12 0.57 0 0.01 0.11 0.48 0.01 0.05 0.11 0.53 0.1 0.51 0.1 0.5 0.03 0.18 0.06 0.29 0.02 0.11 0.06 0.35 0 0.05 0.06 0.37 0.01 0.01 0.06 0.42 0.04 0.28 0.03 0.3 0.01 0.03 0 0.01c0.05,0.28 0.07,0.52 0.06,0.75l0 0.01 0 0.03 0 0.01 0 0.02 0.01 0.02 0 0.03 0 0.09 0 0.03 0 0.05 0 0.03 0 0.02 0 0.01 0 0.02 0 0.03 0 0.02 0 0.03 0 0.08 0 0.02 0 0.03 0 0.02 0 0.01 0 0.01 0 0.03 0 0.02 0 0.02 -0.01 0.14 0 0.01 0 0.01 -0.03 0.16 0 0.02 0 0.02 0 0 0 0.02 -0.03 0.14 -0.01 0.01 0 0.01 0 0.01 -0.05 0.14 -0.02 0.04 -0.02 0.05 -0.02 0.04 -0.03 0.05 0 0 -0.02 0.04 0 0 -0.01 0.04 -0.01 0.01 -0.02 0.04 -0.02 0.05 -0.02 0.05 -0.01 0 -0.02 0.04 0 0 -0.02 0.04 0 0.01 -0.02 0.05 -0.03 0.05 -0.02 0.05 0 0 -0.02 0.04 0 0 -0.03 0.05 -0.02 0.05 -0.03 0.05 -0.02 0.05 0 0 -0.02 0.04 0 0.01 -0.02 0.04 -0.01 0.01 -0.02 0.05 -0.03 0.05 -0.02 0.05 0 0 -0.02 0.04 -0.01 0.01 -0.02 0.05 -0.02 0.05 -0.03 0.05 -0.02 0.05 -0.02 0.05 -0.03 0.05 -0.02 0.06 -0.02 0.05 0 0 -0.02 0.04 0 0.01 -0.02 0.04 -0.01 0.01 -0.04 0.1 0 0.01 -0.02 0.04 0 0 -0.02 0.05 0 0 -0.02 0.05 -0.01 0.03 -0.01 0.02 -0.02 0.05 -0.02 0.05 0 0 -0.02 0.05 0 0 -0.01 0.04 -0.01 0.01 -0.01 0.05 -0.02 0.05 0 0.01 -0.02 0.04 0 0 -0.01 0.04 0 0 -0.02 0.05 -0.01 0.05 -0.02 0.05 -0.01 0.05 0 0 -0.01 0.15c0.08,0.15 0.45,0.33 0.7,0.79 0.14,0.25 0.32,0.72 0.36,0.82 1.85,4.54 2.8,15.19 3.28,19.34 1.91,15.38 3.58,30.49 4.85,45.87 1.52,18.29 1.36,55.29 -0.71,73.45 -1.44,13.3 -3.9,26.61 -4.86,39.63 -0.16,2.08 -0.08,4.02 0,6.1 -0.16,0.14 0.16,0.42 -0.08,-0.14l-0.24 -0.55c-0.08,2.22 -0.79,7.76 -0.39,9.42 -0.56,3.52 -2.1,8.56 -1.83,11.78l1.35 0.42c4.22,1.11 4.85,1.11 9.39,1.52 3.34,0.28 6.84,0.42 10.19,0.7 7.24,0.41 14.24,0 21.49,0 14.32,0.13 28.49,1.1 42.82,0.83 14,-0.14 27.85,-0.83 41.54,-2.22 6.61,-0.69 12.66,-1.39 18.79,-3.05 3.82,-0.97 15.04,-3.6 19.1,-2.36l0.32 0.97c0.47,-1.1 0.87,-0.69 0.79,-2.49 -0.06,-1.05 0.44,-5.47 -5.25,-15.52 -0.16,-0.69 0,-0.28 -0.32,-0.56 0,0 -0.08,-0.13 -0.08,-0.27l0.24 -0.14c-0.4,-2.91 -0.32,-0.56 -0.88,-5.54 -1.35,-13.31 -3.58,-25.78 -5.09,-39.09 -1.75,-15.79 -1.91,-32.7 -1.83,-48.64 0,-26.05 1.52,-45.47 4.47,-70.69 0.62,-5.29 1.14,-14.33 2.98,-19.57 0.12,-0.34 0.63,-1.16 1,-1.83 -0.12,-1.74 -0.33,-3.34 -0.68,-4.63 -0.02,-0.07 -0.03,-0.16 -0.04,-0.28l0 -0.01 0 -0.01 0 -0.02 0 -0.12 0 -0.06 0 -0.02 0.01 -0.18 0 -0.02 0.01 -0.08 0.02 -0.18 0 -0.03 0.03 -0.22 0.01 -0.04 0.01 -0.08 0.01 -0.13 0.02 -0.11 0 -0.01 0.02 -0.14 0.03 -0.13 0.02 -0.14 0.03 -0.15 0.03 -0.15 0 0 0.02 -0.15 0.04 -0.15 0.01 -0.1 0.02 -0.06 0.03 -0.17 0.03 -0.16 0.01 -0.03 0.03 -0.15 0.04 -0.17 0.02 -0.13 0.02 -0.05 0.04 -0.18 0.04 -0.18 0.01 -0.05 0.03 -0.14 0.04 -0.19 0.04 -0.16 0.01 -0.04 0.05 -0.2 0.04 -0.2 0.02 -0.08 0.03 -0.12 0.05 -0.21 0.05 -0.19 0 -0.02 0.05 -0.21 0.06 -0.21 0.02 -0.11 0.03 -0.11 0.05 -0.22 0.06 -0.22 0 -0.02 0.06 -0.21 0.05 -0.23 0.04 -0.14 0.02 -0.09 0.06 -0.23 0.06 -0.23 0.01 -0.05 0.05 -0.19 0.06 -0.24 0.05 -0.18 0.02 -0.06 0.06 -0.25 0.06 -0.24 0.02 -0.08 0.05 -0.17 0.06 -0.25 0.06 -0.21 0.01 -0.04 0.07 -0.25 0.06 -0.26 0.03 -0.11 0.04 -0.14 0.07 -0.26 0.07 -0.25 0 -0.01 0.01 -0.03c0.16,-0.71 0.45,-1.78 0.82,-3.08l0.02 -0.06 0.02 -0.07 0.04 -0.18 0.06 -0.19 0.1 -0.38 0.03 -0.13 0.07 -0.24 0.1 -0.38 0.02 -0.08 0.08 -0.3 0.1 -0.38 0.01 -0.03 0.1 -0.35 0.09 -0.36 0.01 -0.02 0.1 -0.38 0.08 -0.31 0.02 -0.06 0.1 -0.38 0.07 -0.26 0.03 -0.12 0.1 -0.38 0.06 -0.21 0.04 -0.17 0.1 -0.37 0.05 -0.16 0.05 -0.22 0.1 -0.37 0.03 -0.11 0.07 -0.27 0.1 -0.37 0.01 -0.06 0.09 -0.31 0.09 -0.37 0 -0.01 0.1 -0.36 0.08 -0.32 0.01 -0.04 0.09 -0.36 0.07 -0.28 0.02 -0.08 0.1 -0.36 0.05 -0.22 0.04 -0.13 0.08 -0.36 0.05 -0.17 0.04 -0.17 0.09 -0.35 0.03 -0.13 0.05 -0.21 0.08 -0.34 0.02 -0.08 0.06 -0.26 0.08 -0.33 0.01 -0.03 0.07 -0.29 0.08 -0.32 0 -0.01 0.07 -0.32 0.06 -0.26 0.01 -0.05 0.07 -0.31 0.05 -0.22 0.02 -0.09 0.07 -0.3 0.04 -0.17 0.02 -0.12 0.06 -0.29 0.03 -0.13 0.03 -0.16 0.06 -0.28 0.02 -0.09 0.04 -0.18 0.05 -0.27 0.01 -0.05 0.06 -0.35 0.03 -0.12 0 -0.01 0.04 -0.24 0.04 -0.22 0 -0.02 0.04 -0.24 0.03 -0.18 0.01 -0.05 0.03 -0.22 0.02 -0.15 0.01 -0.07 0.05 -0.32 0.01 -0.09 0.02 -0.2 0.01 -0.07 0.01 -0.11 0.01 -0.18 0.01 -0.05 0 -0.01 0.01 -0.28 0 -0.02 0.01 -0.13 0 -0.15c0,-5.25 4.59,-26.27 6.67,-34.44 -0.17,-0.1 -0.43,-0.19 -0.88,-0.27 -0.01,-0.01 -0.02,-0.02 -0.03,-0.03 -0.57,-0.48 -5.5,-2.76 -6.58,-3.43 -5.01,-2.91 -7.64,-4.02 -13.21,-5.54 -2.47,-0.56 -4.93,-1.11 -7.48,-1.81 -0.95,-0.27 -2.07,-0.96 -3.26,-1.24 -1.2,-0.42 -2.63,-0.83 -3.82,-0.97 -1.99,-0.56 -1.67,-0.83 -3.11,-1.53 -1.03,-0.55 -2.54,-0.55 -3.82,-0.97l-13.53 -5.26c-0.77,-0.15 -1.83,-1.6 -2.55,-1.39zm-67.25 3.19c0.4,1.66 0.64,2.63 1.51,3.88 2.31,3.33 6.13,5.27 10.11,6.51 9.47,2.91 29.53,2.36 38.92,-0.97 4.54,-1.66 10.83,-4.99 11.94,-9.98 -1.91,-0.13 -5.25,0.56 -7.4,0.7 -2.71,0.14 -5.25,0.14 -8.04,0.14l-0.44 0 -0.46 0.01 0 0 -0.48 0.01 -0.01 0 -0.5 0.01 -0.01 0 -0.51 0.01 -0.02 0 -0.53 0.01 -0.03 0 -0.54 0.01 -0.03 0 -0.55 0.02 -0.05 0 -0.56 0.01c-6.51,0.14 -15.93,0.37 -24.03,0.37l-0.05 0 -0.73 0 -0.03 0c-5.98,0 -11.23,-0.12 -14.06,-0.46 -0.8,0 -2.11,-0.3 -2.98,-0.31l-0.01 0 -0.05 0 0 0 -0.04 0 -0.01 0 -0.04 0 -0.02 0 -0.02 0 -0.03 0 -0.05 0.01 -0.01 0 -0.03 0 -0.01 0 -0.04 0.01 0 0 -0.04 0 -0.04 0.01z"/>
 </g>
</svg>
