<?xml version="1.0" encoding="UTF-8"?>
<!DOCTYPE svg PUBLIC "-//W3C//DTD SVG 1.1//EN" "http://www.w3.org/Graphics/SVG/1.1/DTD/svg11.dtd">
<!-- Creator: CorelDRAW -->
<svg xmlns="http://www.w3.org/2000/svg" xml:space="preserve" width="24.3128mm" height="42.3332mm" version="1.1" style="shape-rendering:geometricPrecision; text-rendering:geometricPrecision; image-rendering:optimizeQuality; fill-rule:evenodd; clip-rule:evenodd"
viewBox="0 0 2431.28 4233.32"
 xmlns:xlink="http://www.w3.org/1999/xlink"
 xmlns:xodm="http://www.corel.com/coreldraw/odm/2003">
 <defs>
  <style type="text/css">
   <![CDATA[
    .fil1 {fill:none}
    .fil0 {fill:black}
   ]]>
  </style>
   <clipPath id="id0">
    <path d="M1225.37 2808.63l1.2 -0.01c7.16,-0.07 14.32,-0.17 21.49,-0.31 120.66,-1.19 239.95,-7.16 357.86,-19.1 56.9,-5.97 109,-11.94 161.79,-26.26 32.91,-8.36 129.57,-31.04 164.53,-20.29l2.75 8.35c2.05,1.2 1.37,1.2 2.05,4.78 10.97,29.84 30.17,75.2 42.51,106.24 47.3,119.37 82.26,235.15 104.2,366.46 19.88,120.56 29.48,306.78 32.22,438.09 1.37,51.32 1.37,102.65 4.11,155.18 0,9.55 0,13.13 0,20.29 -0.68,10.74 -0.68,20.29 -0.68,31.03 0,16.72 4.11,45.37 -11.66,50.14 -6.85,1.19 -4.11,-1.19 -11.65,2.39 -21.25,11.93 -25.37,8.35 -41.82,19.1 -28.11,16.71 -227.6,16.71 -269.42,20.29 -68.56,5.97 -208.41,27.45 -268.05,-11.94 -6.86,-3.58 -10.97,-8.35 -17.14,-13.13 -27.42,-21.48 -16.45,4.78 -27.42,-65.65 -2.74,-19.1 -4.8,-28.65 -5.49,-33.43 -2.05,-14.32 -2.74,-14.32 -2.74,-15.51 -6.17,-22.68 -8.23,-54.91 -14.4,-78.79 -6.17,-21.48 -10.28,-19.1 -19.88,-33.42 -31.53,-45.36 -6.85,-47.75 -16.45,-82.36 -7.54,-26.27 -7.54,-17.91 -20.57,-32.23 -6.85,-8.36 -17.13,-20.3 -20.56,-33.43 -1.37,-7.16 -2.74,-15.52 -1.37,-22.68 0.68,-4.77 2.05,-5.97 2.74,-10.74 1.37,-7.16 0.68,-4.78 -1.37,-5.97 -2.74,-7.16 -0.69,-31.04 -8.23,-38.2 -32.91,-32.23 -12.34,-34.62 -15.08,-57.3 -2.06,-8.35 1.37,4.78 -2.74,-5.96l-8.23 -29.85c-2.74,-10.74 1.37,-7.16 -7.54,-14.32 -4.11,-3.58 -8.23,-8.36 -7.54,-17.91 1.37,-13.13 -1.37,-15.51 -9.6,-35.81 -3.4,-7.9 -9.15,-22.34 -13.76,-31.14 -0.96,-1.84 -1.87,-3.43 -2.69,-4.67 0,0 -0.69,0 -0.69,1.2l-0.19 0 -0.49 0 -2.06 7.16c-2.78,8.7 -5.44,18.18 -7.94,27.8l-0.04 0.06 0.01 0.03c-3.67,14.13 -7,28.58 -9.86,41.34 -5.48,27.46 -10.28,54.91 -15.08,82.37 -26.73,153.98 -43.19,334.23 -50.04,492.99 -0.69,4.78 -2.75,38.2 -2.75,38.2 0,17.91 -2.05,37 -2.74,54.91 -0.68,22.68 -6.17,28.65 -24.68,35.81 -70.61,29.84 -252.97,33.42 -329.06,32.23 -60.33,-1.19 -170.02,-7.16 -229.66,-10.74 -34.28,-3.58 -74.04,-7.16 -106.26,-14.33 -26.74,-7.16 -24,-8.35 -24.68,-35.81 0,-5.97 -1.37,-23.87 -6.17,-260.22 -0.69,-48.94 -1.37,-96.69 -2.06,-144.44 -0.69,-45.36 -6.17,-87.14 -8.91,-132.5 -0.69,-10.74 -1.37,-22.68 -2.06,-33.42 -1.37,-11.94 -0.68,-25.07 -0.68,-34.62l-2.75 -31.04c0,-11.93 -0.68,-23.87 -0.68,-35.81 -2.06,-103.85 8.91,-266.19 24.68,-372.43 0.68,-4.77 0.68,-9.55 2.74,-14.32 2.06,-4.78 0,-2.39 0.69,-13.13l2.05 5.97c0,-5.97 -0.68,-4.78 -0.68,-9.55 0,-3.59 0.68,-7.17 1.37,-10.75 1.37,-7.16 2.06,-13.13 3.43,-19.1 2.74,-17.9 4.8,-20.29 5.48,-34.61 4.11,-2.39 -2.06,0 1.37,0 4.8,0 -3.43,1.19 0.69,0l-0.69 -7.17c4.11,-2.38 -2.05,0 2.06,0l-0.69 -10.74c4.12,-1.19 -2.05,-2.39 1.37,1.19 2.75,1.2 -0.68,1.2 0.69,0 -1.37,-15.51 4.11,-31.03 5.48,-47.74 3.43,-2.39 0,5.97 1.37,-9.55l5.49 -31.04c0.68,-1.19 0.68,-13.13 1.37,-16.71 36.33,9.55 41.82,9.55 80.9,13.13 28.79,2.39 58.95,3.58 87.75,5.97 62.38,3.58 122.71,0 185.1,0 115.83,1.12 230.45,8.55 346.13,7.48z"/>
   </clipPath>
 </defs>
 <g id="Camada_x0020_1">
  <metadata id="CorelCorpID_0Corel-Layer"/>
  <g>
  </g>
  <g style="clip-path:url(#id0)">
   <g id="_2658876604304">
    <path class="fil0" d="M2055.67 3877.86c0.53,-460.99 -46.91,-822.82 -194.78,-1180.36l29.32 0 4.55 0 46.26 0c145.45,353.46 193.82,720.74 194.88,1171.31 0.02,11.1 -5.16,41.64 -5.19,52.86 -12.86,-25.74 -49.2,-36.8 -75.04,-43.81z"/>
    <path class="fil0" d="M598.87 2726.28c-6.12,21.45 -11.89,42.91 -17.36,64.39 -17.28,-1.63 -42.79,-4.03 -60.26,-8.62 -77.53,402.3 -56.7,500.11 -51.66,831.66 0.69,47.75 9.84,120.91 10.53,169.85 4.8,236.35 6.17,254.25 6.17,260.22 0.68,27.46 -2.06,28.65 24.68,35.81 5.53,1.23 23.93,2.35 37.28,3.39 2.3,20.05 4.69,40.26 7.16,60.68l34.1 0c-69.39,-573.14 -77.2,-996.49 42.31,-1417.38l-32.95 0z"/>
   </g>
  </g>
  <path class="fil1" d="M1225.37 2808.63l1.2 -0.01c7.16,-0.07 14.32,-0.17 21.49,-0.31 120.66,-1.19 239.95,-7.16 357.86,-19.1 56.9,-5.97 109,-11.94 161.79,-26.26 32.91,-8.36 129.57,-31.04 164.53,-20.29l2.75 8.35c2.05,1.2 1.37,1.2 2.05,4.78 10.97,29.84 30.17,75.2 42.51,106.24 47.3,119.37 82.26,235.15 104.2,366.46 19.88,120.56 29.48,306.78 32.22,438.09 1.37,51.32 1.37,102.65 4.11,155.18 0,9.55 0,13.13 0,20.29 -0.68,10.74 -0.68,20.29 -0.68,31.03 0,16.72 4.11,45.37 -11.66,50.14 -6.85,1.19 -4.11,-1.19 -11.65,2.39 -21.25,11.93 -25.37,8.35 -41.82,19.1 -28.11,16.71 -227.6,16.71 -269.42,20.29 -68.56,5.97 -208.41,27.45 -268.05,-11.94 -6.86,-3.58 -10.97,-8.35 -17.14,-13.13 -27.42,-21.48 -16.45,4.78 -27.42,-65.65 -2.74,-19.1 -4.8,-28.65 -5.49,-33.43 -2.05,-14.32 -2.74,-14.32 -2.74,-15.51 -6.17,-22.68 -8.23,-54.91 -14.4,-78.79 -6.17,-21.48 -10.28,-19.1 -19.88,-33.42 -31.53,-45.36 -6.85,-47.75 -16.45,-82.36 -7.54,-26.27 -7.54,-17.91 -20.57,-32.23 -6.85,-8.36 -17.13,-20.3 -20.56,-33.43 -1.37,-7.16 -2.74,-15.52 -1.37,-22.68 0.68,-4.77 2.05,-5.97 2.74,-10.74 1.37,-7.16 0.68,-4.78 -1.37,-5.97 -2.74,-7.16 -0.69,-31.04 -8.23,-38.2 -32.91,-32.23 -12.34,-34.62 -15.08,-57.3 -2.06,-8.35 1.37,4.78 -2.74,-5.96l-8.23 -29.85c-2.74,-10.74 1.37,-7.16 -7.54,-14.32 -4.11,-3.58 -8.23,-8.36 -7.54,-17.91 1.37,-13.13 -1.37,-15.51 -9.6,-35.81 -3.4,-7.9 -9.15,-22.34 -13.76,-31.14 -0.96,-1.84 -1.87,-3.43 -2.69,-4.67 0,0 -0.69,0 -0.69,1.2l-0.19 0 -0.49 0 -2.06 7.16c-2.78,8.7 -5.44,18.18 -7.94,27.8l-0.04 0.06 0.01 0.03c-3.67,14.13 -7,28.58 -9.86,41.34 -5.48,27.46 -10.28,54.91 -15.08,82.37 -26.73,153.98 -43.19,334.23 -50.04,492.99 -0.69,4.78 -2.75,38.2 -2.75,38.2 0,17.91 -2.05,37 -2.74,54.91 -0.68,22.68 -6.17,28.65 -24.68,35.81 -70.61,29.84 -252.97,33.42 -329.06,32.23 -60.33,-1.19 -170.02,-7.16 -229.66,-10.74 -34.28,-3.58 -74.04,-7.16 -106.26,-14.33 -26.74,-7.16 -24,-8.35 -24.68,-35.81 0,-5.97 -1.37,-23.87 -6.17,-260.22 -0.69,-48.94 -1.37,-96.69 -2.06,-144.44 -0.69,-45.36 -6.17,-87.14 -8.91,-132.5 -0.69,-10.74 -1.37,-22.68 -2.06,-33.42 -1.37,-11.94 -0.68,-25.07 -0.68,-34.62l-2.75 -31.04c0,-11.93 -0.68,-23.87 -0.68,-35.81 -2.06,-103.85 8.91,-266.19 24.68,-372.43 0.68,-4.77 0.68,-9.55 2.74,-14.32 2.06,-4.78 0,-2.39 0.69,-13.13l2.05 5.97c0,-5.97 -0.68,-4.78 -0.68,-9.55 0,-3.59 0.68,-7.17 1.37,-10.75 1.37,-7.16 2.06,-13.13 3.43,-19.1 2.74,-17.9 4.8,-20.29 5.48,-34.61 4.11,-2.39 -2.06,0 1.37,0 4.8,0 -3.43,1.19 0.69,0l-0.69 -7.17c4.11,-2.38 -2.05,0 2.06,0l-0.69 -10.74c4.12,-1.19 -2.05,-2.39 1.37,1.19 2.75,1.2 -0.68,1.2 0.69,0 -1.37,-15.51 4.11,-31.03 5.48,-47.74 3.43,-2.39 0,5.97 1.37,-9.55l5.49 -31.04c0.68,-1.19 0.68,-13.13 1.37,-16.71 36.33,9.55 41.82,9.55 80.9,13.13 28.79,2.39 58.95,3.58 87.75,5.97 62.38,3.58 122.71,0 185.1,0 115.83,1.12 230.45,8.55 346.13,7.48z"/>
 </g>
</svg>
